<svg xmlns="http://www.w3.org/2000/svg" version="1.0" width="2175.000000pt" height="1830.000000pt" viewBox="0 0 2175.000000 1830.000000" preserveAspectRatio="xMidYMid meet">

<g transform="translate(0.000000,1830.000000) scale(0.100000,-0.100000)" fill="#ffffff" stroke="none">
<path d="M13365 17409 c-1699 -483 -3097 -878 -3105 -878 -19 -1 -614 523 -618 545 -2 9 -11 14 -20 11 -10 -2 -1195 -330 -2634 -728 l-2618 -724 0 -587 c0 -464 -3 -588 -12 -588 -7 1 -165 72 -351 158 l-339 158 -1151 -342 c-634 -189 -1429 -425 -1767 -526 l-615 -183 -3 -125 c-4 -197 -130 -13585 -127 -13588 1 -1 3944 -2 8761 -2 l8759 1 2105 192 2105 193 3 5421 2 5421 -2385 3203 -2385 3204 0 132 0 132 -236 191 c-153 123 -244 190 -257 189 -12 -1 -1412 -396 -3112 -880z m3089 539 c3 -143 4 -263 2 -265 -5 -5 -6139 -1721 -6166 -1726 -13 -2 -15 32 -15 252 l0 254 3070 872 c1689 480 3077 873 3086 874 14 1 17 -30 23 -261z m267 76 l176 -143 7 -362 c4 -199 5 -363 3 -366 -3 -2 -90 111 -196 252 l-191 256 0 260 c0 206 3 259 13 253 6 -5 91 -72 188 -150z m-246 -1662 c9 -684 15 -1245 13 -1248 -8 -7 -1238 -208 -1243 -202 -3 2 -11 422 -19 932 -8 511 -16 929 -18 930 -2 2 -579 -152 -1283 -340 -704 -189 -1291 -346 -1304 -349 l-24 -6 6 -794 7 -794 -28 -5 c-15 -4 -272 -49 -572 -101 -300 -52 -557 -97 -571 -100 l-26 -6 -9 544 -9 543 -560 -153 c-308 -84 -561 -153 -562 -153 -2 0 -3 185 -3 410 0 226 1 410 3 410 1 0 1393 389 3092 864 1700 475 3091 863 3092 862 0 0 9 -560 18 -1244z m245 915 l190 -253 16 -1090 c8 -599 14 -1111 12 -1139 l-3 -50 -185 175 -185 174 -6 86 c-4 47 -12 576 -18 1175 -6 600 -14 1109 -16 1133 -3 23 -2 42 0 42 3 0 90 -114 195 -253z m2724 -3066 l2236 -3005 0 -208 c0 -114 -2 -208 -4 -208 -2 0 -1060 1409 -2352 3132 l-2349 3131 -3 241 -3 241 120 -160 c65 -88 1125 -1512 2355 -3164z m-9876 1957 l-3 -831 -725 -204 c-399 -112 -821 -231 -938 -264 l-213 -60 -81 61 c-99 74 -160 104 -259 129 -362 92 -727 23 -1031 -196 -157 -113 -333 -311 -432 -487 -25 -45 -47 -84 -48 -87 -2 -3 -313 -93 -692 -198 -379 -106 -695 -195 -702 -198 -12 -4 -14 135 -12 873 l3 878 2555 707 c1405 389 2561 708 2568 708 10 1 12 -168 10 -831z m402 515 l235 -209 0 -4634 0 -4633 -255 -62 c-140 -34 -267 -64 -282 -68 l-28 -7 0 4951 0 4951 48 -40 c26 -23 153 -135 282 -249z m9364 -2891 l2346 -3129 0 -5101 0 -5102 -22 -5 c-66 -14 -4239 -385 -4334 -385 l-112 0 -6 273 c-6 271 -226 16309 -226 16485 0 50 2 92 4 92 2 0 1059 -1408 2350 -3128z m-4186 2801 l-3 -97 -1085 -271 c-597 -149 -1097 -275 -1112 -278 l-28 -7 0 -741 0 -741 -28 5 c-15 3 -66 9 -114 13 -47 3 -90 9 -96 13 -11 7 -21 1525 -10 1536 6 7 2440 662 2466 664 10 1 12 -22 10 -96z m123 -8210 c65 -4421 119 -8100 119 -8175 l0 -138 -1180 0 c-649 0 -1180 1 -1181 3 -5 19 -43 15805 -38 15811 8 9 2151 545 2157 540 2 -1 57 -3620 123 -8041z m-3937 6845 c4 -49 188 -14810 186 -15050 l0 -108 -609 0 c-336 0 -612 3 -614 8 -3 4 -8 1235 -12 2737 -4 1502 -10 2827 -14 2946 l-6 216 -325 -94 -325 -93 -1906 -210 c-1049 -115 -1931 -211 -1960 -213 -73 -7 -2963 -325 -3016 -332 l-43 -6 0 -2480 0 -2479 -670 0 -670 0 0 6269 0 6269 193 46 c642 154 1202 284 1205 281 2 -2 -10 -1535 -26 -3407 -17 -1871 -30 -3403 -29 -3404 1 -1 1561 195 3467 436 l3465 438 322 78 323 78 2 3920 3 3919 520 142 c286 79 523 143 527 144 4 0 9 -23 12 -51z m-1764 -822 l0 -854 -37 -9 c-21 -6 -359 -95 -751 -198 -392 -103 -715 -185 -718 -182 -3 3 -10 187 -14 409 -12 555 -14 588 -44 703 -33 129 -116 296 -199 400 l-64 81 196 54 c108 29 513 142 901 251 388 109 711 198 718 198 9 1 12 -176 12 -853z m6924 447 c12 -389 29 -2254 20 -2262 -11 -10 -1226 -282 -1232 -276 -5 4 -44 2517 -39 2521 4 5 1188 201 1218 203 l26 1 7 -187z m345 -111 l105 -98 15 -1127 c8 -620 12 -1130 9 -1133 -4 -3 -90 40 -192 97 l-186 102 0 56 c0 31 -7 511 -15 1066 -8 556 -15 1075 -15 1154 l0 143 88 -81 c48 -44 134 -125 191 -179z m-9596 213 c47 -8 114 -25 149 -38 65 -24 168 -85 168 -100 0 -7 -83 -100 -270 -300 -17 -18 -19 -18 -77 11 -63 32 -145 56 -228 67 -57 7 -223 -23 -306 -55 -37 -15 -51 -17 -54 -7 -3 6 -25 82 -49 167 -33 114 -42 157 -33 162 30 19 190 72 267 88 108 23 315 26 433 5z m-722 -305 l46 -159 -55 -37 c-109 -72 -205 -178 -272 -299 -19 -33 -35 -62 -37 -65 -6 -7 -283 134 -283 145 0 19 97 168 165 252 36 45 102 116 148 158 85 79 225 180 236 170 3 -3 26 -78 52 -165z m1175 47 c38 -39 86 -98 107 -130 82 -124 148 -297 163 -427 6 -56 5 -59 -17 -65 -118 -27 -379 -85 -386 -85 -6 0 -13 29 -17 65 -13 126 -71 250 -164 347 l-54 57 143 155 c79 86 147 156 150 156 4 0 37 -33 75 -73z m-4066 -301 l0 -295 -52 -15 c-112 -32 -3379 -926 -3384 -926 -7 0 -1 507 6 513 8 7 3393 1015 3413 1016 16 1 17 -19 17 -293z m724 -16 c8 -8 9 -7970 1 -7978 -6 -6 -680 -91 -684 -86 -6 6 17 6944 25 7755 l7 616 321 -150 c176 -82 325 -153 330 -157z m2705 135 c35 -9 68 -18 74 -22 7 -4 -27 -13 -73 -19 -82 -12 -196 -45 -271 -77 l-36 -16 -42 43 -42 43 69 22 c138 43 218 50 321 26z m-413 -126 l43 -42 -62 -39 c-125 -81 -230 -194 -287 -307 l-22 -44 -24 29 c-13 16 -26 37 -29 46 -14 39 114 231 202 305 47 39 124 93 133 93 2 0 23 -19 46 -41z m684 -28 c69 -71 124 -175 145 -276 10 -46 15 -130 15 -245 0 -96 7 -501 15 -900 15 -745 31 -1635 40 -2235 3 -187 7 -491 10 -675 9 -565 24 -2105 26 -2680 l2 -544 -609 -77 c-335 -42 -628 -80 -652 -83 l-42 -6 2 3503 3 3502 27 100 c40 146 112 286 193 373 167 181 436 298 689 301 l78 1 58 -59z m5283 -738 c10 -1177 9 -1353 -5 -1353 -7 0 -272 -47 -588 -104 -316 -57 -576 -103 -577 -102 -5 5 -31 2141 -26 2146 4 5 1142 207 1174 209 14 1 16 -77 22 -796z m228 781 l76 -6 6 -457 c4 -251 7 -737 7 -1080 l0 -623 -22 5 c-13 3 -62 9 -109 12 -48 4 -92 11 -99 15 -9 6 -13 137 -16 576 -2 313 -6 796 -8 1073 l-4 503 47 -6 c25 -3 80 -8 122 -12z m-6808 -310 c72 -37 133 -68 135 -69 2 -2 -10 -47 -27 -101 -62 -200 -73 -293 -78 -681 l-5 -353 -47 0 c-25 0 -97 -3 -158 -7 l-113 -6 0 224 c1 302 16 606 35 709 28 147 95 350 116 350 5 0 69 -30 142 -66z m-269 -59 c-63 -194 -74 -292 -85 -749 -5 -225 -10 -410 -12 -412 -3 -2 -1223 -294 -1231 -294 -3 0 -5 266 -4 592 l3 591 670 188 c369 103 675 188 681 188 8 1 -1 -39 -22 -104z m-2135 -582 c-1 -318 -5 -846 -8 -1173 l-6 -595 -400 -61 c-220 -34 -402 -59 -405 -56 -3 4 -2 369 2 812 4 443 7 808 5 811 -1 3 -400 -89 -887 -205 l-885 -211 -3 -681 -2 -680 -430 -59 c-237 -32 -432 -56 -434 -54 -4 5 14 1782 18 1786 3 4 3416 941 3429 942 4 1 6 -259 6 -576z m4345 520 c9 -64 19 -843 10 -843 -4 0 -97 -18 -207 -41 -109 -23 -200 -39 -203 -36 -9 9 -23 852 -15 860 7 7 366 94 398 96 6 1 14 -16 17 -36z m-1703 -70 c10 -18 8 -36 -9 -95 -40 -139 -43 -179 -42 -653 0 -289 -3 -456 -9 -450 -5 6 -28 52 -51 104 l-42 94 5 316 c6 369 17 465 79 679 l21 74 18 -24 c10 -12 23 -33 30 -45z m3299 -1063 c0 -352 -3 -640 -6 -640 -7 0 -1425 -297 -1459 -306 -21 -5 -21 -4 -33 587 -7 326 -9 596 -5 600 7 6 1472 396 1496 398 4 1 7 -287 7 -639z m-6822 218 l-3 -52 -705 -166 c-388 -92 -717 -170 -732 -173 l-28 -7 0 -625 0 -625 -47 0 c-27 0 -65 3 -86 6 l-37 7 2 650 3 651 800 192 c440 105 808 192 818 193 16 1 18 -6 15 -51z m5246 -20 c7 -35 27 -1160 21 -1166 -6 -6 -417 -64 -420 -60 -4 5 -26 1160 -22 1164 5 5 369 82 394 83 16 1 24 -6 27 -21z m-1934 -817 l0 -598 -46 -7 c-26 -3 -100 -6 -165 -6 l-119 0 0 293 c0 160 3 430 7 599 l6 307 136 4 c75 1 146 4 159 5 l22 2 0 -599z m-392 -18 l-3 -598 -615 -147 c-338 -81 -616 -148 -617 -148 -2 0 -3 270 -3 600 0 330 1 600 3 600 1 0 272 65 602 144 330 80 608 145 618 145 16 1 17 -32 15 -596z m510 402 l42 -91 -2 -544 -3 -545 -45 90 -45 90 0 552 c0 304 2 549 6 545 3 -4 24 -48 47 -97z m10352 -297 c0 -117 7 -692 15 -1277 8 -586 12 -1068 8 -1072 -12 -10 -1227 -188 -1234 -181 -8 9 -42 2452 -35 2460 6 5 1208 279 1234 281 9 1 12 -48 12 -211z m260 89 l185 -102 2 -130 c13 -706 33 -2379 29 -2382 -4 -5 -364 154 -377 166 -3 3 -11 458 -18 1011 -6 553 -14 1125 -18 1273 -3 155 -2 267 3 267 5 0 92 -47 194 -103z m-4160 -1453 c5 -693 8 -1260 7 -1260 -5 -4 -1159 -215 -1162 -212 -7 7 -34 2513 -27 2519 7 7 1164 217 1170 213 2 -1 7 -568 12 -1260z m250 1237 l45 -6 6 -1260 c3 -693 5 -1262 3 -1263 -5 -6 -219 19 -226 26 -3 4 -9 573 -13 1265 l-8 1258 74 -7 c41 -4 94 -10 119 -13z m-3310 -648 l0 -598 -728 -136 c-400 -76 -728 -136 -729 -135 -5 5 -25 1147 -19 1153 6 7 1423 309 1459 312 16 1 17 -34 17 -596z m-1547 140 c6 -106 22 -863 22 -998 l0 -39 -213 -42 c-143 -27 -215 -37 -217 -30 -5 17 -23 1170 -18 1176 4 4 361 56 404 59 14 1 17 -18 22 -126z m-4404 -907 c-2 -470 -7 -858 -11 -862 -4 -4 -178 -33 -385 -65 -208 -32 -391 -60 -406 -63 l-28 -6 7 858 c4 471 8 859 10 861 3 3 706 116 808 130 4 0 7 -381 5 -853z m2441 185 c0 -330 -3 -602 -8 -605 -4 -2 -77 -6 -162 -7 l-155 -3 -3 595 c-1 327 0 600 3 607 3 9 46 12 165 12 l160 0 0 -599z m-392 -23 l-3 -602 -590 -141 c-324 -78 -602 -145 -618 -148 l-27 -7 2 606 3 607 590 142 c325 79 602 143 618 144 l27 1 -2 -602z m508 418 l44 -93 0 -544 c0 -298 -4 -539 -8 -534 -5 6 -21 42 -37 80 -15 39 -34 75 -41 81 -12 9 -14 111 -14 558 0 300 3 546 6 546 3 0 25 -42 50 -94z m-5138 -933 l-3 -938 -380 -41 c-209 -23 -407 -45 -439 -49 l-59 -6 7 923 c5 508 9 924 10 925 1 2 766 110 859 122 4 1 6 -421 5 -936z m220 931 l22 -6 0 -924 0 -924 -24 0 c-12 0 -51 -3 -85 -6 l-61 -7 0 937 0 936 63 0 c34 0 72 -3 85 -6z m8312 -1089 c0 -333 -1 -605 -2 -605 -2 -1 -322 -61 -713 -134 -390 -74 -711 -133 -713 -131 -4 4 -30 1200 -26 1204 6 6 1392 268 1427 270 l27 1 0 -605z m-1517 63 c4 -139 10 -411 14 -604 l6 -351 -204 -27 c-112 -15 -211 -28 -220 -30 -15 -3 -17 32 -23 373 -13 795 -13 803 -2 807 8 3 367 75 417 83 3 1 9 -113 12 -251z m-1994 -611 c0 -309 -3 -580 -7 -602 l-7 -40 -152 -3 -151 -3 -7 263 c-3 145 -5 416 -3 603 l3 340 155 5 c85 3 158 4 163 2 4 -2 7 -256 6 -565z m-389 -46 c0 -562 -1 -600 -17 -605 -10 -3 -265 -64 -568 -136 -302 -72 -574 -137 -603 -145 l-52 -13 2 601 3 601 610 147 c336 81 613 147 618 148 4 0 7 -269 7 -598z m521 382 l29 -72 -2 -548 -3 -548 -47 97 -48 98 1 567 0 568 21 -45 c11 -25 33 -77 49 -117z m10373 -515 c4 -200 31 -2246 61 -4548 30 -2302 57 -4348 61 -4547 l6 -363 -615 0 -615 0 -6 213 c-6 223 -136 9108 -136 9307 l0 116 613 91 c336 50 615 92 618 92 4 1 10 -162 13 -361z m261 257 c94 -42 174 -80 178 -85 7 -6 136 -8971 137 -9468 l0 -162 -192 2 -193 3 -3 175 c-15 1081 -122 9313 -122 9445 0 138 3 176 13 172 6 -3 89 -40 182 -82z m-13215 -949 c0 -599 -4 -997 -9 -1001 -11 -6 -774 -125 -808 -125 l-23 0 6 753 c4 413 9 862 13 997 l6 244 395 62 c217 34 401 62 408 63 9 1 12 -204 12 -993z m9031 432 c0 -189 13 -2332 28 -4763 15 -2431 26 -4423 24 -4428 -2 -4 -251 -7 -554 -7 l-549 0 0 58 c-1 31 -27 2129 -59 4662 -32 2533 -57 4607 -56 4608 5 6 1107 210 1138 211 l27 1 1 -342z m275 316 l21 -5 6 -2577 c4 -1417 10 -3557 14 -4755 l6 -2177 -101 0 -102 0 0 163 c0 291 -49 8267 -54 8826 l-5 544 97 -7 c53 -4 106 -10 118 -12z m-3346 -614 c0 -335 -1 -610 -2 -610 -2 0 -316 -67 -698 -150 -382 -82 -696 -147 -698 -145 -6 6 -33 1237 -27 1243 4 4 1377 267 1413 271 9 1 12 -127 12 -609z m-8290 -490 l0 -940 -85 0 -85 0 0 940 0 940 85 0 85 0 0 -940z m-240 -5 l0 -934 -32 -5 c-18 -3 -206 -26 -418 -51 -212 -25 -400 -48 -418 -51 l-34 -5 7 938 c4 516 9 940 11 942 4 4 807 96 867 100 16 1 17 -50 17 -934z m7050 197 c7 -337 9 -616 6 -619 -6 -6 -447 -65 -451 -61 -1 2 -5 282 -9 624 l-6 621 172 23 c95 12 193 26 218 30 25 3 48 4 51 1 4 -3 12 -282 19 -619z m-2040 -286 l0 -614 -144 -7 c-79 -4 -149 -4 -155 -1 -8 5 -11 186 -11 616 l0 609 23 4 c12 2 82 5 155 6 l132 1 0 -614z m-379 -629 c-7 -7 -1203 -297 -1229 -297 -10 0 -12 126 -10 612 l3 611 615 147 615 147 7 -606 c4 -333 4 -609 -1 -614z m547 381 l-3 -563 -47 99 -48 98 1 567 1 566 49 -102 49 -103 -2 -562z m3350 -465 l-3 -617 -683 -86 c-458 -58 -685 -83 -687 -76 -6 18 -27 1088 -22 1093 5 4 1356 299 1385 302 10 1 12 -125 10 -616z m-1467 305 c5 -12 26 -1094 21 -1099 -7 -6 -417 -60 -453 -59 -15 0 -17 53 -21 548 -3 301 -3 549 -1 552 8 8 451 65 454 58z m-4499 -945 c-2 -401 -5 -729 -6 -729 -2 -3 -809 -104 -823 -104 -15 0 -17 323 -6 1010 l6 425 396 61 c218 34 405 62 416 63 20 1 20 -1 17 -726z m2458 127 c0 -424 -3 -542 -12 -545 -7 -2 -76 -13 -154 -22 l-141 -19 -7 553 c-4 305 -4 558 -1 563 4 6 70 10 161 10 l154 0 0 -540z m-380 -37 l0 -558 -588 -74 c-323 -40 -604 -76 -624 -79 l-38 -5 0 490 0 489 473 113 c259 62 533 128 607 146 74 19 143 34 153 34 16 1 17 -32 17 -556z m540 -100 c0 -298 -3 -384 -12 -388 -7 -2 -30 -6 -50 -10 l-38 -6 1 493 0 493 50 -99 49 -99 0 -384z m-4940 -228 l0 -685 -85 0 -85 0 0 685 0 685 85 0 85 0 0 -685z m-240 -10 c0 -377 -2 -685 -4 -685 -2 0 -192 -22 -422 -49 -231 -27 -435 -51 -454 -53 l-34 -3 2 530 c1 292 5 600 8 685 l7 155 421 52 c231 28 433 51 449 52 l27 1 0 -685z m240 -3730 l0 -2985 -85 0 -85 0 0 2985 0 2985 85 0 85 0 0 -2985z m-240 -5 l0 -2980 -485 0 -485 0 0 38 c-2 251 54 5809 59 5814 6 7 807 105 874 107 l37 1 0 -2980z m9174 1033 c3 -995 8 -2304 12 -2910 l6 -1103 -296 0 -296 0 0 2830 0 2829 38 11 c20 5 143 41 272 79 129 38 240 70 246 70 9 1 13 -475 18 -1806z m-644 -1188 l0 -2825 -687 2 -688 3 -3 2743 c-2 2189 0 2744 10 2747 7 3 315 38 683 79 369 40 673 74 678 75 4 0 7 -1270 7 -2824z m-1440 -80 l0 -2745 -1200 0 -1200 0 0 2615 c0 2484 1 2615 18 2615 9 1 541 59 1182 129 641 71 1173 129 1183 130 16 1 17 -136 17 -2744z m-2462 -132 l-3 -2608 -632 -3 -633 -2 0 2540 c0 1397 1 2540 3 2541 8 2 1226 137 1245 138 l22 1 -2 -2607z m-1338 -78 l0 -2535 -330 0 -330 0 0 2500 c0 1375 1 2500 3 2501 14 4 583 67 615 68 l42 1 0 -2535z m-730 -40 l0 -2495 -420 0 -420 0 0 2450 c0 1348 1 2450 3 2451 10 4 761 87 795 88 l42 1 0 -2495z" fill="#ffffff"/>
</g>
</svg>