<svg xmlns="http://www.w3.org/2000/svg" width="256" height="256" viewBox="0 0 100 100"><rect width="100" height="100" rx="50" fill="#222d57"></rect><path d="M15.38 66.80Q11.95 66.80 9.20 65.63Q6.45 64.45 4.86 62.24Q3.26 60.03 3.21 57.03L3.21 57.03L10.26 57.03Q10.40 59.05 11.70 60.22Q12.99 61.40 15.24 61.40L15.24 61.40Q17.55 61.40 18.86 60.29Q20.18 59.19 20.18 57.40L20.18 57.40Q20.18 55.95 19.29 55.01Q18.39 54.07 17.05 53.53Q15.71 52.98 13.36 52.33L13.36 52.33Q10.17 51.39 8.17 50.47Q6.17 49.55 4.74 47.70Q3.31 45.84 3.31 42.74L3.31 42.74Q3.31 39.82 4.76 37.66Q6.22 35.50 8.85 34.35Q11.48 33.20 14.87 33.20L14.87 33.20Q19.94 33.20 23.12 35.67Q26.29 38.13 26.62 42.55L26.62 42.55L19.38 42.55Q19.29 40.86 17.95 39.75Q16.61 38.65 14.40 38.65L14.40 38.65Q12.47 38.65 11.32 39.64Q10.17 40.62 10.17 42.50L10.17 42.50Q10.17 43.82 11.04 44.69Q11.91 45.56 13.20 46.10Q14.49 46.64 16.84 47.34L16.84 47.34Q20.04 48.28 22.06 49.22Q24.08 50.16 25.54 52.04Q26.99 53.92 26.99 56.98L26.99 56.98Q26.99 59.61 25.63 61.87Q24.27 64.12 21.64 65.46Q19.00 66.80 15.38 66.80L15.38 66.80ZM54.96 66.47L52.80 60.22L39.73 60.22L37.57 66.47L30.66 66.47L42.46 33.62L50.12 33.62L61.91 66.47L54.96 66.47ZM41.52 54.96L51.01 54.96L46.26 41.23L41.52 54.96ZM64.73 50.02Q64.73 45.18 66.92 41.35Q69.11 37.52 72.89 35.38Q76.67 33.24 81.37 33.24L81.37 33.24Q86.87 33.24 91.01 36.06Q95.14 38.88 96.79 43.87L96.79 43.87L89.22 43.87Q88.09 41.52 86.05 40.34Q84.00 39.17 81.33 39.17L81.33 39.17Q78.46 39.17 76.23 40.51Q73.99 41.85 72.75 44.29Q71.50 46.73 71.50 50.02L71.50 50.02Q71.50 53.27 72.75 55.73Q73.99 58.20 76.23 59.54Q78.46 60.88 81.33 60.88L81.33 60.88Q84.00 60.88 86.05 59.68Q88.09 58.48 89.22 56.13L89.22 56.13L96.79 56.13Q95.14 61.16 91.03 63.96Q86.92 66.76 81.37 66.76L81.37 66.76Q76.67 66.76 72.89 64.62Q69.11 62.48 66.92 58.67Q64.73 54.86 64.73 50.02L64.73 50.02Z" fill="#fff"></path></svg>